<mxfile host="app.diagrams.net" modified="2021-06-11T02:16:39.904Z" agent="5.0 (Windows NT 10.0; Win64; x64) AppleWebKit/537.36 (KHTML, like Gecko) Chrome/86.0.4240.183 Safari/537.36" etag="fqPnR8T0A4pWhu-2--ZW" version="14.7.6" type="github">
  <diagram id="C5RBs43oDa-KdzZeNtuy" name="Page-1">
    <mxGraphModel dx="1422" dy="762" grid="1" gridSize="10" guides="1" tooltips="1" connect="1" arrows="1" fold="1" page="1" pageScale="1" pageWidth="827" pageHeight="1169" math="0" shadow="0">
      <root>
        <mxCell id="WIyWlLk6GJQsqaUBKTNV-0" />
        <mxCell id="WIyWlLk6GJQsqaUBKTNV-1" parent="WIyWlLk6GJQsqaUBKTNV-0" />
        <mxCell id="WIyWlLk6GJQsqaUBKTNV-3" value="RT-Thread Studio RISC-V 开发流程" style="rounded=1;whiteSpace=wrap;html=1;fontSize=12;glass=0;strokeWidth=1;shadow=0;fillColor=#dae8fc;strokeColor=#6c8ebf;" parent="WIyWlLk6GJQsqaUBKTNV-1" vertex="1">
          <mxGeometry x="160" y="110" width="130" height="50" as="geometry" />
        </mxCell>
        <mxCell id="Bp9LAeBRggJaBVCAypxH-1" value="" style="endArrow=classic;html=1;entryX=0.5;entryY=0;entryDx=0;entryDy=0;" parent="WIyWlLk6GJQsqaUBKTNV-1" edge="1">
          <mxGeometry width="50" height="50" relative="1" as="geometry">
            <mxPoint x="225" y="160" as="sourcePoint" />
            <mxPoint x="225" y="190" as="targetPoint" />
          </mxGeometry>
        </mxCell>
        <mxCell id="Bp9LAeBRggJaBVCAypxH-2" value="&lt;span&gt;RISC-V&amp;nbsp; SDK 下载&lt;/span&gt;&lt;br&gt;&lt;span&gt;(SDK Manager 提供）&lt;/span&gt;" style="rounded=0;whiteSpace=wrap;html=1;fillColor=#f8cecc;strokeColor=#b85450;" parent="WIyWlLk6GJQsqaUBKTNV-1" vertex="1">
          <mxGeometry x="160" y="190" width="130" height="60" as="geometry" />
        </mxCell>
        <mxCell id="Bp9LAeBRggJaBVCAypxH-3" value="创建工程&lt;br&gt;（基于 bsp，选择 RV_STAR 开发板）" style="rounded=0;whiteSpace=wrap;html=1;fillColor=#d5e8d4;strokeColor=#82b366;" parent="WIyWlLk6GJQsqaUBKTNV-1" vertex="1">
          <mxGeometry x="379" y="189" width="125" height="60" as="geometry" />
        </mxCell>
        <mxCell id="Bp9LAeBRggJaBVCAypxH-5" value="编写/维护代码&lt;br&gt;（可选）" style="rounded=0;whiteSpace=wrap;html=1;fillColor=#d5e8d4;strokeColor=#82b366;" parent="WIyWlLk6GJQsqaUBKTNV-1" vertex="1">
          <mxGeometry x="379" y="300" width="125" height="40" as="geometry" />
        </mxCell>
        <mxCell id="Bp9LAeBRggJaBVCAypxH-6" value="下载/调试" style="rounded=0;whiteSpace=wrap;html=1;fillColor=#d5e8d4;strokeColor=#82b366;" parent="WIyWlLk6GJQsqaUBKTNV-1" vertex="1">
          <mxGeometry x="377" y="580" width="125" height="40" as="geometry" />
        </mxCell>
        <mxCell id="Bp9LAeBRggJaBVCAypxH-7" value="" style="endArrow=classic;html=1;exitX=1;exitY=0.5;exitDx=0;exitDy=0;entryX=0;entryY=0.5;entryDx=0;entryDy=0;" parent="WIyWlLk6GJQsqaUBKTNV-1" source="Bp9LAeBRggJaBVCAypxH-2" target="Bp9LAeBRggJaBVCAypxH-3" edge="1">
          <mxGeometry width="50" height="50" relative="1" as="geometry">
            <mxPoint x="290" y="250" as="sourcePoint" />
            <mxPoint x="370" y="220" as="targetPoint" />
          </mxGeometry>
        </mxCell>
        <mxCell id="Bp9LAeBRggJaBVCAypxH-8" value="" style="endArrow=classic;html=1;" parent="WIyWlLk6GJQsqaUBKTNV-1" edge="1">
          <mxGeometry width="50" height="50" relative="1" as="geometry">
            <mxPoint x="441" y="249" as="sourcePoint" />
            <mxPoint x="442" y="300" as="targetPoint" />
          </mxGeometry>
        </mxCell>
        <mxCell id="Bp9LAeBRggJaBVCAypxH-9" value="" style="endArrow=classic;html=1;entryX=0.5;entryY=0;entryDx=0;entryDy=0;" parent="WIyWlLk6GJQsqaUBKTNV-1" target="Bp9LAeBRggJaBVCAypxH-16" edge="1">
          <mxGeometry width="50" height="50" relative="1" as="geometry">
            <mxPoint x="441" y="340" as="sourcePoint" />
            <mxPoint x="442" y="390" as="targetPoint" />
          </mxGeometry>
        </mxCell>
        <mxCell id="Bp9LAeBRggJaBVCAypxH-10" value="硬件下载/调试" style="rounded=0;whiteSpace=wrap;html=1;fillColor=#e1d5e7;strokeColor=#9673a6;" parent="WIyWlLk6GJQsqaUBKTNV-1" vertex="1">
          <mxGeometry x="260" y="640" width="100" height="60" as="geometry" />
        </mxCell>
        <mxCell id="Bp9LAeBRggJaBVCAypxH-11" value="QEMU 仿真下载/调试&lt;br&gt;（依赖 SDK 中下载的 QEMU）" style="rounded=0;whiteSpace=wrap;html=1;fillColor=#e1d5e7;strokeColor=#9673a6;" parent="WIyWlLk6GJQsqaUBKTNV-1" vertex="1">
          <mxGeometry x="520" y="640" width="125" height="60" as="geometry" />
        </mxCell>
        <mxCell id="Bp9LAeBRggJaBVCAypxH-12" value="" style="endArrow=classic;html=1;" parent="WIyWlLk6GJQsqaUBKTNV-1" edge="1">
          <mxGeometry width="50" height="50" relative="1" as="geometry">
            <mxPoint x="318" y="601" as="sourcePoint" />
            <mxPoint x="318" y="640" as="targetPoint" />
          </mxGeometry>
        </mxCell>
        <mxCell id="Bp9LAeBRggJaBVCAypxH-13" value="" style="endArrow=none;html=1;entryX=0;entryY=0.5;entryDx=0;entryDy=0;" parent="WIyWlLk6GJQsqaUBKTNV-1" target="Bp9LAeBRggJaBVCAypxH-6" edge="1">
          <mxGeometry width="50" height="50" relative="1" as="geometry">
            <mxPoint x="318" y="600" as="sourcePoint" />
            <mxPoint x="368" y="630" as="targetPoint" />
          </mxGeometry>
        </mxCell>
        <mxCell id="Bp9LAeBRggJaBVCAypxH-14" value="" style="endArrow=none;html=1;" parent="WIyWlLk6GJQsqaUBKTNV-1" edge="1">
          <mxGeometry width="50" height="50" relative="1" as="geometry">
            <mxPoint x="502" y="598.5" as="sourcePoint" />
            <mxPoint x="572" y="598.5" as="targetPoint" />
          </mxGeometry>
        </mxCell>
        <mxCell id="Bp9LAeBRggJaBVCAypxH-15" value="" style="endArrow=classic;html=1;" parent="WIyWlLk6GJQsqaUBKTNV-1" edge="1">
          <mxGeometry width="50" height="50" relative="1" as="geometry">
            <mxPoint x="572" y="598" as="sourcePoint" />
            <mxPoint x="572" y="640" as="targetPoint" />
          </mxGeometry>
        </mxCell>
        <mxCell id="Bp9LAeBRggJaBVCAypxH-16" value="编译工程&lt;br&gt;（依赖 SDK 中下载的 RISC-V工具链）" style="rounded=0;whiteSpace=wrap;html=1;fillColor=#d5e8d4;strokeColor=#82b366;" parent="WIyWlLk6GJQsqaUBKTNV-1" vertex="1">
          <mxGeometry x="379" y="380" width="125" height="60" as="geometry" />
        </mxCell>
        <mxCell id="Bp9LAeBRggJaBVCAypxH-17" value="编译通过" style="rhombus;whiteSpace=wrap;html=1;fillColor=#f0a30a;strokeColor=#BD7000;fontColor=#ffffff;" parent="WIyWlLk6GJQsqaUBKTNV-1" vertex="1">
          <mxGeometry x="384.5" y="480" width="110" height="60" as="geometry" />
        </mxCell>
        <mxCell id="Bp9LAeBRggJaBVCAypxH-18" value="" style="endArrow=classic;html=1;" parent="WIyWlLk6GJQsqaUBKTNV-1" edge="1">
          <mxGeometry width="50" height="50" relative="1" as="geometry">
            <mxPoint x="640" y="280" as="sourcePoint" />
            <mxPoint x="440" y="280" as="targetPoint" />
          </mxGeometry>
        </mxCell>
        <mxCell id="Bp9LAeBRggJaBVCAypxH-19" value="" style="endArrow=none;html=1;" parent="WIyWlLk6GJQsqaUBKTNV-1" edge="1">
          <mxGeometry width="50" height="50" relative="1" as="geometry">
            <mxPoint x="640" y="510" as="sourcePoint" />
            <mxPoint x="640" y="280" as="targetPoint" />
          </mxGeometry>
        </mxCell>
        <mxCell id="Bp9LAeBRggJaBVCAypxH-20" value="" style="endArrow=none;html=1;exitX=1;exitY=0.5;exitDx=0;exitDy=0;" parent="WIyWlLk6GJQsqaUBKTNV-1" source="Bp9LAeBRggJaBVCAypxH-17" edge="1">
          <mxGeometry width="50" height="50" relative="1" as="geometry">
            <mxPoint x="496.5" y="509.5" as="sourcePoint" />
            <mxPoint x="640" y="510" as="targetPoint" />
          </mxGeometry>
        </mxCell>
        <mxCell id="Bp9LAeBRggJaBVCAypxH-21" value="" style="endArrow=classic;html=1;entryX=0.5;entryY=0;entryDx=0;entryDy=0;" parent="WIyWlLk6GJQsqaUBKTNV-1" edge="1">
          <mxGeometry width="50" height="50" relative="1" as="geometry">
            <mxPoint x="439" y="440" as="sourcePoint" />
            <mxPoint x="439.5" y="480" as="targetPoint" />
          </mxGeometry>
        </mxCell>
        <mxCell id="Bp9LAeBRggJaBVCAypxH-22" value="" style="endArrow=classic;html=1;" parent="WIyWlLk6GJQsqaUBKTNV-1" edge="1">
          <mxGeometry width="50" height="50" relative="1" as="geometry">
            <mxPoint x="439" y="540" as="sourcePoint" />
            <mxPoint x="439" y="580" as="targetPoint" />
          </mxGeometry>
        </mxCell>
        <mxCell id="Bp9LAeBRggJaBVCAypxH-23" value="YES" style="text;html=1;strokeColor=none;fillColor=none;align=center;verticalAlign=middle;whiteSpace=wrap;rounded=0;" parent="WIyWlLk6GJQsqaUBKTNV-1" vertex="1">
          <mxGeometry x="440" y="550" width="40" height="20" as="geometry" />
        </mxCell>
        <mxCell id="Bp9LAeBRggJaBVCAypxH-24" value="NO" style="text;html=1;strokeColor=none;fillColor=none;align=center;verticalAlign=middle;whiteSpace=wrap;rounded=0;" parent="WIyWlLk6GJQsqaUBKTNV-1" vertex="1">
          <mxGeometry x="530" y="490" width="40" height="20" as="geometry" />
        </mxCell>
        <mxCell id="Bp9LAeBRggJaBVCAypxH-25" value="结束" style="rounded=1;whiteSpace=wrap;html=1;fillColor=#dae8fc;strokeColor=#6c8ebf;" parent="WIyWlLk6GJQsqaUBKTNV-1" vertex="1">
          <mxGeometry x="399.5" y="780" width="80" height="40" as="geometry" />
        </mxCell>
        <mxCell id="Bp9LAeBRggJaBVCAypxH-27" value="" style="endArrow=classic;html=1;" parent="WIyWlLk6GJQsqaUBKTNV-1" edge="1">
          <mxGeometry width="50" height="50" relative="1" as="geometry">
            <mxPoint x="442" y="740" as="sourcePoint" />
            <mxPoint x="442" y="780" as="targetPoint" />
          </mxGeometry>
        </mxCell>
        <mxCell id="Bp9LAeBRggJaBVCAypxH-30" value="" style="endArrow=none;html=1;" parent="WIyWlLk6GJQsqaUBKTNV-1" edge="1">
          <mxGeometry width="50" height="50" relative="1" as="geometry">
            <mxPoint x="570" y="740" as="sourcePoint" />
            <mxPoint x="570" y="701" as="targetPoint" />
          </mxGeometry>
        </mxCell>
        <mxCell id="Bp9LAeBRggJaBVCAypxH-31" value="" style="endArrow=none;html=1;" parent="WIyWlLk6GJQsqaUBKTNV-1" edge="1">
          <mxGeometry width="50" height="50" relative="1" as="geometry">
            <mxPoint x="319" y="740" as="sourcePoint" />
            <mxPoint x="319" y="701" as="targetPoint" />
          </mxGeometry>
        </mxCell>
        <mxCell id="Bp9LAeBRggJaBVCAypxH-32" value="" style="endArrow=none;html=1;" parent="WIyWlLk6GJQsqaUBKTNV-1" edge="1">
          <mxGeometry width="50" height="50" relative="1" as="geometry">
            <mxPoint x="320" y="740" as="sourcePoint" />
            <mxPoint x="570" y="740" as="targetPoint" />
          </mxGeometry>
        </mxCell>
      </root>
    </mxGraphModel>
  </diagram>
</mxfile>
